<svg xmlns="http://www.w3.org/2000/svg" width="512" height="512" viewBox="0 0 512 512" role="img" aria-label="PomoTM tomato icon">
  <rect width="512" height="512" rx="112" fill="#0f172a"/>
  <circle cx="256" cy="280" r="150" fill="#ef4444"/>
  <path d="M256 155c-45-48-88-48-115-19 40 5 61 24 75 53-35-13-67-3-83 24 45-5 80 5 104 32h38c24-27 59-37 104-32-16-27-48-37-83-24 14-29 35-48 75-53-27-29-70-29-115 19Z" fill="#22c55e"/>
  <path d="M256 155c-8-37 3-67 32-91 8 40-3 75-32 101Z" fill="#16a34a"/>
</svg>
